<?xml version="1.0" encoding="UTF-8" standalone="no"?>
<!DOCTYPE svg PUBLIC "-//W3C//DTD SVG 1.1//EN" "http://www.w3.org/Graphics/SVG/1.1/DTD/svg11.dtd">
<svg width="100%" height="100%" viewBox="0 0 882 730" version="1.1" xmlns="http://www.w3.org/2000/svg" xmlns:xlink="http://www.w3.org/1999/xlink" xml:space="preserve" xmlns:serif="http://www.serif.com/" style="fill-rule:evenodd;clip-rule:evenodd;stroke-linejoin:round;stroke-miterlimit:2;">
    <g transform="matrix(1,0,0,1,-99.2792,-175.35)">
        <g id="Gear-8" serif:id="Gear 8" transform="matrix(1.39408,0,0,1.49273,-199.445,-228.175)">
            <g id="Gear-81" serif:id="Gear 8" transform="matrix(0.464883,0,0,0.464883,169.259,251.357)">
                <g transform="matrix(0.671949,-0.27833,0.291134,0.70286,19.9351,310.754)">
                    <g id="OuterCircle">
                        <path d="M841.966,238.034L665.064,238.07L841.966,414.922" style="fill:rgb(18,75,164);"/>
                        <g transform="matrix(0.707107,-0.707107,0.707107,0.707107,-223.675,540)">
                            <path d="M841.966,238.034L665.064,238.07L841.966,414.922" style="fill:rgb(9,89,179);"/>
                        </g>
                        <g transform="matrix(0,-1,1,0,1.13687e-13,1080)">
                            <path d="M841.966,238.034L665.064,238.07L841.966,414.922" style="fill:rgb(9,89,179);"/>
                        </g>
                        <g transform="matrix(-0.707107,-0.707107,0.707107,-0.707107,540,1303.68)">
                            <path d="M841.935,237.956L665.064,238.07L841.966,414.922" style="fill:rgb(9,89,179);"/>
                        </g>
                        <g transform="matrix(-1,0,0,-1,1080,1080)">
                            <path d="M841.966,238.034L665.064,238.07L841.966,414.922" style="fill:rgb(9,89,179);"/>
                        </g>
                        <g transform="matrix(-0.707107,0.707107,-0.707107,-0.707107,1303.68,540)">
                            <path d="M841.966,238.034L665.064,238.07L841.966,414.922" style="fill:rgb(9,89,179);"/>
                        </g>
                        <g transform="matrix(0,1,-1,0,1080,-3.41061e-13)">
                            <path d="M841.879,237.996L665.064,238.07L841.966,414.922" style="fill:rgb(9,89,179);"/>
                        </g>
                        <g transform="matrix(0.707107,0.707107,-0.707107,0.707107,540,-223.675)">
                            <path d="M841.966,238.034L665.064,238.07L841.966,414.922" style="fill:rgb(9,89,179);"/>
                        </g>
                    </g>
                </g>
                <g id="Tooth">
                    <path d="M536.134,193.559L469.406,100.712L415.673,239.847" style="fill:rgb(42,127,222);"/>
                    <g transform="matrix(0.325568,0.945519,-0.945519,0.325568,560.48,-370.57)">
                        <path d="M525.468,206.682L456.354,122.218L415.954,239.547" style="fill:rgb(9,89,179);"/>
                    </g>
                    <g transform="matrix(-0.788011,0.615661,-0.615661,-0.788011,1093.34,38.7291)">
                        <path d="M534.403,221.04L471.62,108.341L432.04,258.89" style="fill:rgb(48,116,191);"/>
                    </g>
                    <path d="M415.673,239.847L536.134,193.559L536.134,292.976" style="fill:rgb(18,75,164);"/>
                    <g transform="matrix(-1,0,0,1,1071.81,0)">
                        <path d="M416.815,243.714L535.673,193.559L535.673,292.976" style="fill:rgb(9,89,179);"/>
                    </g>
                </g>
                <g id="Tooth1" serif:id="Tooth" transform="matrix(0.707107,-0.707107,0.707107,0.707107,-218.206,529.365)">
                    <path d="M536.134,193.559L469.406,100.712L413.642,247.343" style="fill:rgb(42,127,222);"/>
                    <g transform="matrix(0.325568,0.945519,-0.945519,0.325568,560.48,-370.57)">
                        <path d="M525.468,206.682L456.354,122.218L415.954,239.547" style="fill:rgb(9,89,179);"/>
                    </g>
                    <g transform="matrix(-0.788011,0.615661,-0.615661,-0.788011,1093.34,38.7291)">
                        <path d="M534.403,221.04L471.62,108.341L432.04,258.89" style="fill:rgb(48,116,191);"/>
                    </g>
                    <path d="M413.642,247.343L536.134,193.559L532.479,296.599" style="fill:rgb(18,75,164);"/>
                    <g transform="matrix(-1,0,0,1,1071.81,0)">
                        <path d="M416.815,243.714L535.673,193.559L539.328,296.599" style="fill:rgb(9,89,179);"/>
                    </g>
                </g>
                <g id="Tooth2" serif:id="Tooth" transform="matrix(0,-1,1,0,-3.86639,1076.13)">
                    <path d="M536.134,193.559L469.406,100.712L417.211,256.914" style="fill:rgb(42,127,222);"/>
                    <g transform="matrix(0.325568,0.945519,-0.945519,0.325568,560.48,-370.57)">
                        <path d="M525.468,206.682L456.354,122.218L415.954,239.547" style="fill:rgb(9,89,179);"/>
                    </g>
                    <g transform="matrix(-0.788011,0.615661,-0.615661,-0.788011,1093.34,38.7291)">
                        <path d="M534.403,221.04L469.986,95.219L432.04,258.89" style="fill:rgb(48,116,191);"/>
                    </g>
                    <path d="M417.211,256.914L536.134,193.559L540,304.628" style="fill:rgb(18,75,164);"/>
                    <g transform="matrix(-1,0,0,1,1071.81,0)">
                        <path d="M407.448,253.048L535.673,193.559L531.807,304.628" style="fill:rgb(9,89,179);"/>
                    </g>
                </g>
                <g id="Tooth3" serif:id="Tooth" transform="matrix(-0.707107,-0.707107,0.707107,-0.707107,533.4,1300.94)">
                    <path d="M536.134,193.559L469.406,100.712L404.997,252.125" style="fill:rgb(42,127,222);"/>
                    <g transform="matrix(0.325568,0.945519,-0.945519,0.325568,560.48,-370.57)">
                        <path d="M525.468,206.682L456.354,122.218L415.954,239.547" style="fill:rgb(9,89,179);"/>
                    </g>
                    <g transform="matrix(-0.788011,0.615661,-0.615661,-0.788011,1093.34,38.7291)">
                        <path d="M534.403,221.04L481.212,100.577L432.04,258.89" style="fill:rgb(48,116,191);"/>
                    </g>
                    <path d="M404.997,252.125L536.134,193.559L529.533,303.414" style="fill:rgb(18,75,164);"/>
                    <g transform="matrix(-1,0,0,1,1071.81,0)">
                        <path d="M419.592,255.737L535.673,193.559L542.274,303.414" style="fill:rgb(9,89,179);"/>
                    </g>
                </g>
                <g id="Tooth4" serif:id="Tooth" transform="matrix(-1,0,0,-1,1080.3,1079.44)">
                    <path d="M536.134,193.559L469.406,100.712L415.673,239.847" style="fill:rgb(42,127,222);"/>
                    <g transform="matrix(0.325568,0.945519,-0.945519,0.325568,560.48,-370.57)">
                        <path d="M525.468,206.682L456.354,122.218L415.954,239.547" style="fill:rgb(9,89,179);"/>
                    </g>
                    <g transform="matrix(-0.788011,0.615661,-0.615661,-0.788011,1093.34,38.7291)">
                        <path d="M534.403,221.04L471.62,108.341L432.04,258.89" style="fill:rgb(48,116,191);"/>
                    </g>
                    <path d="M415.673,239.847L536.134,193.559L536.134,292.976" style="fill:rgb(18,75,164);"/>
                    <g transform="matrix(-1,0,0,1,1071.81,0)">
                        <path d="M416.815,243.714L535.673,193.559L535.673,292.976" style="fill:rgb(9,89,179);"/>
                    </g>
                </g>
                <g id="Tooth5" serif:id="Tooth" transform="matrix(-0.694658,0.71934,-0.71934,-0.694658,1294.93,536.862)">
                    <path d="M536.134,193.559L469.406,100.712L416.821,242.673" style="fill:rgb(42,127,222);"/>
                    <g transform="matrix(0.325568,0.945519,-0.945519,0.325568,560.48,-370.57)">
                        <path d="M525.468,206.682L456.354,122.218L415.954,239.547" style="fill:rgb(9,89,179);"/>
                    </g>
                    <g transform="matrix(-0.788011,0.615661,-0.615661,-0.788011,1093.34,38.7291)">
                        <path d="M534.403,221.04L471.62,108.341L432.04,258.89" style="fill:rgb(48,116,191);"/>
                    </g>
                    <path d="M416.821,242.673L536.134,193.559L534.854,293.924" style="fill:rgb(18,75,164);"/>
                    <g transform="matrix(-1,0,0,1,1071.81,0)">
                        <path d="M416.815,243.714L535.673,193.559L536.953,293.924" style="fill:rgb(9,89,179);"/>
                    </g>
                </g>
                <g id="Tooth6" serif:id="Tooth" transform="matrix(0,1,-1,0,1073.49,8.53351)">
                    <path d="M536.134,193.559L469.406,100.712L412.59,246.54" style="fill:rgb(42,127,222);"/>
                    <g transform="matrix(0.325568,0.945519,-0.945519,0.325568,560.48,-370.57)">
                        <path d="M525.468,206.682L456.354,122.218L415.954,239.547" style="fill:rgb(9,89,179);"/>
                    </g>
                    <g transform="matrix(-0.788011,0.615661,-0.615661,-0.788011,1093.34,38.7291)">
                        <path d="M534.403,221.04L467.357,106.331L432.04,258.89" style="fill:rgb(48,116,191);"/>
                    </g>
                    <path d="M412.59,246.54L536.134,193.559L535.333,294.272" style="fill:rgb(18,75,164);"/>
                    <g transform="matrix(-1,0,0,1,1071.81,0)">
                        <path d="M412.218,242.673L535.673,193.559L536.474,294.272" style="fill:rgb(9,89,179);"/>
                    </g>
                </g>
                <g id="Tooth7" serif:id="Tooth" transform="matrix(0.707107,0.707107,-0.707107,0.707107,535,-217.82)">
                    <path d="M536.134,193.559L469.406,100.712L411.553,241.613" style="fill:rgb(42,127,222);"/>
                    <g transform="matrix(0.325568,0.945519,-0.945519,0.325568,560.48,-370.57)">
                        <path d="M525.468,206.682L456.354,122.218L415.954,239.547" style="fill:rgb(9,89,179);"/>
                    </g>
                    <g transform="matrix(-0.788011,0.615661,-0.615661,-0.788011,1093.34,38.7291)">
                        <path d="M534.403,221.04L470.072,105.043L432.04,258.89" style="fill:rgb(48,116,191);"/>
                    </g>
                    <path d="M411.553,241.613L536.134,193.559L535.529,293.032" style="fill:rgb(18,75,164);"/>
                    <g transform="matrix(-1,0,0,1,1071.81,0)">
                        <path d="M413.564,245.36L535.673,193.559L536.278,293.032" style="fill:rgb(9,89,179);"/>
                    </g>
                </g>
                <g transform="matrix(0.255576,0,0,0.238685,536.906,539.722)">
                    <g transform="matrix(1,0,0,1,-800,-800)">
                        <g transform="matrix(6.25,0,0,6.25,0,21.875)">
                            <path d="M82.085,244.934C76.139,244.934 70.524,242.292 66.725,237.502L8.919,165.657C5.12,160.867 3.634,154.756 5.12,148.81L25.765,59.128C27.086,53.182 31.05,48.392 36.501,45.75L120.072,5.781C122.715,4.459 125.688,3.799 128.661,3.799C131.634,3.799 134.606,4.459 137.249,5.781L220.821,45.585C226.271,48.227 230.235,53.017 231.556,58.963L252.201,148.645C253.523,154.591 252.201,160.702 248.403,165.492L190.596,237.337C186.797,241.961 181.182,244.769 175.236,244.769L82.085,244.934Z" style="fill:rgb(50,109,230);fill-rule:nonzero;"/>
                            <path d="M128.495,7.928C130.808,7.928 133.12,8.423 135.267,9.414L218.839,49.218C223.133,51.365 226.436,55.329 227.427,59.954L248.072,149.636C249.228,154.426 248.072,159.381 244.934,163.179L187.128,235.025C184.155,238.823 179.53,240.97 174.741,240.97L82.085,240.97C77.295,240.97 72.671,238.823 69.698,235.025L11.892,163.179C8.919,159.381 7.763,154.426 8.754,149.636L29.399,59.954C30.555,55.164 33.693,51.2 37.987,49.218L121.559,9.249C123.706,8.423 126.183,7.928 128.495,7.928ZM128.495,0.165C125.027,0.165 121.559,0.991 118.255,2.477L34.684,42.446C28.077,45.585 23.453,51.365 21.801,58.467L1.156,148.15C-0.495,155.252 1.156,162.519 5.781,168.299L63.587,240.145C68.046,245.76 74.818,248.898 81.92,248.898L174.575,248.898C181.677,248.898 188.449,245.76 192.908,240.145L250.715,168.299C255.339,162.684 256.991,155.252 255.339,148.15L234.694,58.467C233.043,51.365 228.418,45.585 221.812,42.446L138.57,2.477C135.432,0.991 131.964,0.165 128.495,0.165Z" style="fill:white;fill-rule:nonzero;"/>
                            <path d="M212.232,142.534L212.067,142.534C211.902,142.534 211.737,142.534 211.737,142.369C211.406,142.369 211.076,142.204 210.746,142.204C209.59,142.039 208.599,141.874 207.608,141.874C207.112,141.874 206.617,141.874 205.956,141.708L205.791,141.708C202.323,141.378 199.515,141.048 196.872,140.222C195.716,139.726 195.386,139.066 195.055,138.405C195.055,138.24 194.89,138.24 194.89,138.075L192.743,137.414C193.734,129.817 193.404,121.889 191.587,114.126C189.77,106.364 186.632,99.097 182.338,92.49L183.99,91.004L183.99,90.674C183.99,89.848 184.155,89.022 184.815,88.196C186.797,86.379 189.275,84.893 192.248,83.076C192.743,82.746 193.239,82.581 193.734,82.25C194.725,81.755 195.551,81.259 196.542,80.599C196.707,80.434 197.037,80.268 197.368,79.938C197.533,79.773 197.698,79.773 197.698,79.608C200.01,77.626 200.506,74.323 198.854,72.175C198.028,71.019 196.542,70.359 195.055,70.359C193.734,70.359 192.578,70.854 191.422,71.68C191.257,71.845 191.257,71.845 191.092,72.01C190.761,72.175 190.596,72.506 190.266,72.671C189.44,73.497 188.779,74.157 188.119,74.983C187.788,75.314 187.458,75.809 186.963,76.139C184.65,78.617 182.503,80.599 180.356,82.085C179.861,82.415 179.365,82.581 178.87,82.581C178.539,82.581 178.209,82.581 177.879,82.415L177.548,82.415L175.566,83.737C173.419,81.425 171.107,79.443 168.795,77.461C158.885,69.698 146.828,64.908 134.276,63.752L134.111,61.605C133.946,61.44 133.946,61.44 133.781,61.275C133.285,60.779 132.625,60.284 132.459,59.128C132.294,56.485 132.625,53.512 132.955,50.209L132.955,50.044C132.955,49.548 133.12,48.888 133.285,48.392C133.45,47.401 133.615,46.41 133.781,45.254L133.781,43.768C133.781,40.795 131.468,38.317 128.661,38.317C127.339,38.317 126.018,38.978 125.027,39.969C124.036,40.96 123.541,42.281 123.541,43.768L123.541,45.089C123.541,46.245 123.706,47.236 124.036,48.227C124.201,48.723 124.201,49.218 124.366,49.879L124.366,50.044C124.697,53.347 125.192,56.32 124.862,58.963C124.697,60.119 124.036,60.614 123.541,61.11C123.375,61.275 123.375,61.275 123.21,61.44L123.045,63.587C120.072,63.917 117.099,64.248 114.126,64.908C101.409,67.716 90.178,74.157 81.425,83.406L79.773,82.25L79.443,82.25C79.112,82.25 78.782,82.415 78.452,82.415C77.956,82.415 77.461,82.25 76.965,81.92C74.818,80.434 72.671,78.286 70.359,75.809C70.028,75.479 69.698,74.983 69.203,74.653C68.542,73.827 67.881,73.166 67.055,72.341C66.89,72.175 66.56,72.01 66.23,71.68C66.065,71.515 65.899,71.515 65.899,71.35C64.908,70.524 63.587,70.028 62.266,70.028C60.779,70.028 59.293,70.689 58.467,71.845C56.815,73.992 57.311,77.295 59.623,79.277C59.788,79.277 59.788,79.443 59.954,79.443C60.284,79.608 60.449,79.938 60.779,80.103C61.77,80.764 62.596,81.259 63.587,81.755C64.083,81.92 64.578,82.25 65.074,82.581C68.046,84.397 70.524,85.884 72.506,87.701C73.332,88.526 73.332,89.352 73.332,90.178L73.332,90.508L74.983,91.995C74.653,92.49 74.323,92.821 74.157,93.316C65.899,106.364 62.761,121.724 64.908,136.919L62.761,137.579C62.761,137.745 62.596,137.745 62.596,137.91C62.266,138.57 61.77,139.231 60.779,139.726C58.302,140.552 55.329,140.883 51.861,141.213L51.695,141.213C51.2,141.213 50.539,141.213 50.044,141.378C49.053,141.378 48.062,141.543 46.906,141.708C46.575,141.708 46.245,141.874 45.915,141.874C45.75,141.874 45.585,141.874 45.419,142.039C42.446,142.699 40.63,145.507 41.125,148.15C41.621,150.462 43.768,151.948 46.41,151.948C46.906,151.948 47.236,151.948 47.732,151.783C47.897,151.783 48.062,151.783 48.062,151.618C48.392,151.618 48.723,151.453 49.053,151.453C50.209,151.123 51.035,150.792 52.026,150.297C52.521,150.132 53.017,149.801 53.512,149.636L53.677,149.636C56.815,148.48 59.623,147.489 62.266,147.159L62.596,147.159C63.587,147.159 64.248,147.654 64.743,147.985C64.908,147.985 64.908,148.15 65.074,148.15L67.386,147.819C71.35,160.041 78.947,170.942 89.022,178.87C91.334,180.686 93.646,182.173 96.124,183.659L95.133,185.806C95.133,185.972 95.298,185.972 95.298,186.137C95.628,186.797 95.959,187.623 95.628,188.779C94.637,191.257 93.151,193.734 91.334,196.542L91.334,196.707C91.004,197.203 90.674,197.533 90.343,198.028C89.683,198.854 89.187,199.68 88.526,200.671C88.361,200.836 88.196,201.166 88.031,201.497C88.031,201.662 87.866,201.827 87.866,201.827C86.545,204.635 87.535,207.773 90.013,208.929C90.674,209.259 91.334,209.425 91.995,209.425C93.977,209.425 95.959,208.103 96.95,206.286C96.95,206.121 97.115,205.956 97.115,205.956C97.28,205.626 97.445,205.295 97.61,205.13C98.106,203.974 98.271,203.148 98.601,202.157C98.766,201.662 98.932,201.166 99.097,200.671C100.253,197.368 101.079,194.725 102.565,192.413C103.226,191.422 104.052,191.257 104.712,190.926C104.877,190.926 104.877,190.926 105.043,190.761L106.199,188.614C113.466,191.422 121.394,192.908 129.321,192.908C134.111,192.908 139.066,192.413 143.69,191.257C146.663,190.596 149.471,189.77 152.279,188.779L153.27,190.596C153.435,190.596 153.435,190.596 153.6,190.761C154.426,190.926 155.086,191.257 155.747,192.248C157.068,194.56 158.059,197.368 159.215,200.506L159.215,200.671C159.381,201.166 159.546,201.662 159.711,202.157C160.041,203.148 160.206,204.139 160.702,205.13C160.867,205.461 161.032,205.626 161.197,205.956C161.197,206.121 161.363,206.286 161.363,206.286C162.354,208.268 164.335,209.425 166.317,209.425C166.978,209.425 167.639,209.259 168.299,208.929C169.455,208.268 170.446,207.277 170.777,205.956C171.107,204.635 171.107,203.148 170.446,201.827C170.446,201.662 170.281,201.662 170.281,201.497C170.116,201.166 169.951,200.836 169.786,200.671C169.29,199.68 168.63,198.854 167.969,198.028C167.639,197.533 167.308,197.203 166.978,196.707L166.978,196.542C165.161,193.734 163.51,191.257 162.684,188.779C162.354,187.623 162.684,186.963 162.849,186.137C162.849,185.972 163.014,185.972 163.014,185.806L162.188,183.825C170.942,178.705 178.374,171.437 183.99,162.519C186.963,157.894 189.275,152.774 190.926,147.654L192.908,147.985C193.074,147.985 193.074,147.819 193.239,147.819C193.899,147.489 194.395,146.994 195.386,146.994L195.716,146.994C198.359,147.324 201.166,148.315 204.305,149.471L204.47,149.471C204.965,149.636 205.461,149.966 205.956,150.132C206.947,150.627 207.773,150.957 208.929,151.288C209.259,151.288 209.59,151.453 209.92,151.453C210.085,151.453 210.25,151.453 210.415,151.618C210.911,151.783 211.241,151.783 211.737,151.783C214.214,151.783 216.361,150.132 217.022,147.985C217.022,146.003 215.205,143.36 212.232,142.534ZM135.763,134.441L128.495,137.91L121.228,134.441L119.412,126.679L124.366,120.403L132.459,120.403L137.414,126.679L135.763,134.441ZM178.87,117.265C180.191,122.88 180.521,128.495 180.026,133.946L154.756,126.679C152.444,126.018 151.123,123.706 151.618,121.394C151.783,120.733 152.114,120.072 152.609,119.577L172.594,101.574C175.401,106.199 177.548,111.484 178.87,117.265ZM164.666,91.665L143.03,107.025C141.213,108.181 138.735,107.85 137.249,106.034C136.754,105.538 136.588,104.877 136.423,104.217L134.937,77.295C146.333,78.617 156.738,83.737 164.666,91.665ZM116.769,78.121C118.586,77.791 120.237,77.461 122.054,77.13L120.568,103.556C120.403,105.868 118.586,107.85 116.108,107.85C115.448,107.85 114.622,107.685 114.126,107.355L92.16,91.665C98.932,84.893 107.355,80.268 116.769,78.121ZM84.232,101.574L103.886,119.081C105.703,120.568 105.868,123.375 104.382,125.192C103.886,125.853 103.226,126.348 102.4,126.514L76.8,133.946C75.809,122.715 78.286,111.319 84.232,101.574ZM79.773,146.333L106.034,141.874C108.181,141.708 110.163,143.195 110.658,145.342C110.823,146.333 110.823,147.159 110.493,147.985L100.418,172.263C91.169,166.317 83.737,157.234 79.773,146.333ZM140.057,179.2C136.258,180.026 132.459,180.521 128.495,180.521C122.715,180.521 117.099,179.53 111.814,177.879L124.862,154.261C126.183,152.774 128.33,152.114 130.147,153.105C130.973,153.6 131.634,154.261 132.129,154.921L144.846,177.879C143.36,178.374 141.708,178.705 140.057,179.2ZM172.263,156.243C168.134,162.849 162.684,168.134 156.408,172.263L146.003,147.324C145.507,145.342 146.333,143.195 148.315,142.204C148.975,141.874 149.801,141.708 150.627,141.708L177.053,146.168C176.062,149.801 174.41,153.105 172.263,156.243Z" style="fill:white;fill-rule:nonzero;"/>
                        </g>
                    </g>
                </g>
            </g>
            <g id="Gear-82" serif:id="Gear 8" transform="matrix(0.285603,0.128313,-0.147116,0.285603,634.412,399.654)">
                <g transform="matrix(0.671949,-0.27833,0.291134,0.70286,19.9351,310.754)">
                    <g id="OuterCircle1" serif:id="OuterCircle">
                        <path d="M841.966,238.034L665.064,238.07L841.966,414.922" style="fill:rgb(18,75,164);"/>
                        <g transform="matrix(0.707107,-0.707107,0.707107,0.707107,-223.675,540)">
                            <path d="M841.966,238.034L665.064,238.07L841.966,414.922" style="fill:rgb(9,89,179);"/>
                        </g>
                        <g transform="matrix(0,-1,1,0,1.13687e-13,1080)">
                            <path d="M841.966,238.034L665.064,238.07L841.966,414.922" style="fill:rgb(9,89,179);"/>
                        </g>
                        <g transform="matrix(-0.707107,-0.707107,0.707107,-0.707107,540,1303.68)">
                            <path d="M841.935,237.956L665.064,238.07L841.966,414.922" style="fill:rgb(9,89,179);"/>
                        </g>
                        <g transform="matrix(-1,0,0,-1,1080,1080)">
                            <path d="M841.966,238.034L665.064,238.07L841.966,414.922" style="fill:rgb(9,89,179);"/>
                        </g>
                        <g transform="matrix(-0.707107,0.707107,-0.707107,-0.707107,1303.68,540)">
                            <path d="M841.966,238.034L665.064,238.07L841.966,414.922" style="fill:rgb(9,89,179);"/>
                        </g>
                        <g transform="matrix(0,1,-1,0,1080,-3.41061e-13)">
                            <path d="M841.879,237.996L665.064,238.07L841.966,414.922" style="fill:rgb(9,89,179);"/>
                        </g>
                        <g transform="matrix(0.707107,0.707107,-0.707107,0.707107,540,-223.675)">
                            <path d="M841.966,238.034L665.064,238.07L841.966,414.922" style="fill:rgb(9,89,179);"/>
                        </g>
                    </g>
                </g>
                <g id="Tooth8" serif:id="Tooth">
                    <path d="M536.134,193.559L469.406,100.712L415.673,239.847" style="fill:rgb(42,127,222);"/>
                    <g transform="matrix(0.325568,0.945519,-0.945519,0.325568,560.48,-370.57)">
                        <path d="M525.468,206.682L456.354,122.218L415.954,239.547" style="fill:rgb(9,89,179);"/>
                    </g>
                    <g transform="matrix(-0.788011,0.615661,-0.615661,-0.788011,1093.34,38.7291)">
                        <path d="M534.403,221.04L471.62,108.341L432.04,258.89" style="fill:rgb(48,116,191);"/>
                    </g>
                    <path d="M415.673,239.847L536.134,193.559L536.134,292.976" style="fill:rgb(18,75,164);"/>
                    <g transform="matrix(-1,0,0,1,1071.81,0)">
                        <path d="M416.815,243.714L535.673,193.559L535.673,292.976" style="fill:rgb(9,89,179);"/>
                    </g>
                </g>
                <g id="Tooth9" serif:id="Tooth" transform="matrix(0.707107,-0.707107,0.707107,0.707107,-218.206,529.365)">
                    <path d="M536.134,193.559L469.406,100.712L413.642,247.343" style="fill:rgb(42,127,222);"/>
                    <g transform="matrix(0.325568,0.945519,-0.945519,0.325568,560.48,-370.57)">
                        <path d="M525.468,206.682L456.354,122.218L415.954,239.547" style="fill:rgb(9,89,179);"/>
                    </g>
                    <g transform="matrix(-0.788011,0.615661,-0.615661,-0.788011,1093.34,38.7291)">
                        <path d="M534.403,221.04L471.62,108.341L432.04,258.89" style="fill:rgb(48,116,191);"/>
                    </g>
                    <path d="M413.642,247.343L536.134,193.559L532.479,296.599" style="fill:rgb(18,75,164);"/>
                    <g transform="matrix(-1,0,0,1,1071.81,0)">
                        <path d="M416.815,243.714L535.673,193.559L539.328,296.599" style="fill:rgb(9,89,179);"/>
                    </g>
                </g>
                <g id="Tooth10" serif:id="Tooth" transform="matrix(0,-1,1,0,-3.86639,1076.13)">
                    <path d="M536.134,193.559L469.406,100.712L417.211,256.914" style="fill:rgb(42,127,222);"/>
                    <g transform="matrix(0.325568,0.945519,-0.945519,0.325568,560.48,-370.57)">
                        <path d="M525.468,206.682L456.354,122.218L415.954,239.547" style="fill:rgb(9,89,179);"/>
                    </g>
                    <g transform="matrix(-0.788011,0.615661,-0.615661,-0.788011,1093.34,38.7291)">
                        <path d="M534.403,221.04L469.986,95.219L432.04,258.89" style="fill:rgb(48,116,191);"/>
                    </g>
                    <path d="M417.211,256.914L536.134,193.559L540,304.628" style="fill:rgb(18,75,164);"/>
                    <g transform="matrix(-1,0,0,1,1071.81,0)">
                        <path d="M407.448,253.048L535.673,193.559L531.807,304.628" style="fill:rgb(9,89,179);"/>
                    </g>
                </g>
                <g id="Tooth11" serif:id="Tooth" transform="matrix(-0.707107,-0.707107,0.707107,-0.707107,533.4,1300.94)">
                    <path d="M536.134,193.559L469.406,100.712L404.997,252.125" style="fill:rgb(42,127,222);"/>
                    <g transform="matrix(0.325568,0.945519,-0.945519,0.325568,560.48,-370.57)">
                        <path d="M525.468,206.682L456.354,122.218L415.954,239.547" style="fill:rgb(9,89,179);"/>
                    </g>
                    <g transform="matrix(-0.788011,0.615661,-0.615661,-0.788011,1093.34,38.7291)">
                        <path d="M534.403,221.04L481.212,100.577L432.04,258.89" style="fill:rgb(48,116,191);"/>
                    </g>
                    <path d="M404.997,252.125L536.134,193.559L529.533,303.414" style="fill:rgb(18,75,164);"/>
                    <g transform="matrix(-1,0,0,1,1071.81,0)">
                        <path d="M419.592,255.737L535.673,193.559L542.274,303.414" style="fill:rgb(9,89,179);"/>
                    </g>
                </g>
                <g id="Tooth12" serif:id="Tooth" transform="matrix(-1,0,0,-1,1080.3,1079.44)">
                    <path d="M536.134,193.559L469.406,100.712L415.673,239.847" style="fill:rgb(42,127,222);"/>
                    <g transform="matrix(0.325568,0.945519,-0.945519,0.325568,560.48,-370.57)">
                        <path d="M525.468,206.682L456.354,122.218L415.954,239.547" style="fill:rgb(9,89,179);"/>
                    </g>
                    <g transform="matrix(-0.788011,0.615661,-0.615661,-0.788011,1093.34,38.7291)">
                        <path d="M534.403,221.04L471.62,108.341L432.04,258.89" style="fill:rgb(48,116,191);"/>
                    </g>
                    <path d="M415.673,239.847L536.134,193.559L536.134,292.976" style="fill:rgb(18,75,164);"/>
                    <g transform="matrix(-1,0,0,1,1071.81,0)">
                        <path d="M416.815,243.714L535.673,193.559L535.673,292.976" style="fill:rgb(9,89,179);"/>
                    </g>
                </g>
                <g id="Tooth13" serif:id="Tooth" transform="matrix(-0.694658,0.71934,-0.71934,-0.694658,1294.93,536.862)">
                    <path d="M536.134,193.559L469.406,100.712L416.821,242.673" style="fill:rgb(42,127,222);"/>
                    <g transform="matrix(0.325568,0.945519,-0.945519,0.325568,560.48,-370.57)">
                        <path d="M525.468,206.682L456.354,122.218L415.954,239.547" style="fill:rgb(9,89,179);"/>
                    </g>
                    <g transform="matrix(-0.788011,0.615661,-0.615661,-0.788011,1093.34,38.7291)">
                        <path d="M534.403,221.04L471.62,108.341L432.04,258.89" style="fill:rgb(48,116,191);"/>
                    </g>
                    <path d="M416.821,242.673L536.134,193.559L534.854,293.924" style="fill:rgb(18,75,164);"/>
                    <g transform="matrix(-1,0,0,1,1071.81,0)">
                        <path d="M416.815,243.714L535.673,193.559L536.953,293.924" style="fill:rgb(9,89,179);"/>
                    </g>
                </g>
                <g id="Tooth14" serif:id="Tooth" transform="matrix(0,1,-1,0,1073.49,8.53351)">
                    <path d="M536.134,193.559L469.406,100.712L412.59,246.54" style="fill:rgb(42,127,222);"/>
                    <g transform="matrix(0.325568,0.945519,-0.945519,0.325568,560.48,-370.57)">
                        <path d="M525.468,206.682L456.354,122.218L415.954,239.547" style="fill:rgb(9,89,179);"/>
                    </g>
                    <g transform="matrix(-0.788011,0.615661,-0.615661,-0.788011,1093.34,38.7291)">
                        <path d="M534.403,221.04L467.357,106.331L432.04,258.89" style="fill:rgb(48,116,191);"/>
                    </g>
                    <path d="M412.59,246.54L536.134,193.559L535.333,294.272" style="fill:rgb(18,75,164);"/>
                    <g transform="matrix(-1,0,0,1,1071.81,0)">
                        <path d="M412.218,242.673L535.673,193.559L536.474,294.272" style="fill:rgb(9,89,179);"/>
                    </g>
                </g>
                <g id="Tooth15" serif:id="Tooth" transform="matrix(0.707107,0.707107,-0.707107,0.707107,535,-217.82)">
                    <path d="M536.134,193.559L469.406,100.712L411.553,241.613" style="fill:rgb(42,127,222);"/>
                    <g transform="matrix(0.325568,0.945519,-0.945519,0.325568,560.48,-370.57)">
                        <path d="M525.468,206.682L456.354,122.218L415.954,239.547" style="fill:rgb(9,89,179);"/>
                    </g>
                    <g transform="matrix(-0.788011,0.615661,-0.615661,-0.788011,1093.34,38.7291)">
                        <path d="M534.403,221.04L470.072,105.043L432.04,258.89" style="fill:rgb(48,116,191);"/>
                    </g>
                    <path d="M411.553,241.613L536.134,193.559L535.529,293.032" style="fill:rgb(18,75,164);"/>
                    <g transform="matrix(-1,0,0,1,1071.81,0)">
                        <path d="M413.564,245.36L535.673,193.559L536.278,293.032" style="fill:rgb(9,89,179);"/>
                    </g>
                </g>
                <g transform="matrix(0.255576,0,0,0.238685,536.906,539.722)">
                    <g transform="matrix(1,0,0,1,-800,-800)">
                        <g transform="matrix(6.25,0,0,6.25,0,21.875)">
                            <path d="M82.085,244.934C76.139,244.934 70.524,242.292 66.725,237.502L8.919,165.657C5.12,160.867 3.634,154.756 5.12,148.81L25.765,59.128C27.086,53.182 31.05,48.392 36.501,45.75L120.072,5.781C122.715,4.459 125.688,3.799 128.661,3.799C131.634,3.799 134.606,4.459 137.249,5.781L220.821,45.585C226.271,48.227 230.235,53.017 231.556,58.963L252.201,148.645C253.523,154.591 252.201,160.702 248.403,165.492L190.596,237.337C186.797,241.961 181.182,244.769 175.236,244.769L82.085,244.934Z" style="fill:rgb(50,109,230);fill-rule:nonzero;"/>
                            <path d="M128.495,7.928C130.808,7.928 133.12,8.423 135.267,9.414L218.839,49.218C223.133,51.365 226.436,55.329 227.427,59.954L248.072,149.636C249.228,154.426 248.072,159.381 244.934,163.179L187.128,235.025C184.155,238.823 179.53,240.97 174.741,240.97L82.085,240.97C77.295,240.97 72.671,238.823 69.698,235.025L11.892,163.179C8.919,159.381 7.763,154.426 8.754,149.636L29.399,59.954C30.555,55.164 33.693,51.2 37.987,49.218L121.559,9.249C123.706,8.423 126.183,7.928 128.495,7.928ZM128.495,0.165C125.027,0.165 121.559,0.991 118.255,2.477L34.684,42.446C28.077,45.585 23.453,51.365 21.801,58.467L1.156,148.15C-0.495,155.252 1.156,162.519 5.781,168.299L63.587,240.145C68.046,245.76 74.818,248.898 81.92,248.898L174.575,248.898C181.677,248.898 188.449,245.76 192.908,240.145L250.715,168.299C255.339,162.684 256.991,155.252 255.339,148.15L234.694,58.467C233.043,51.365 228.418,45.585 221.812,42.446L138.57,2.477C135.432,0.991 131.964,0.165 128.495,0.165Z" style="fill:white;fill-rule:nonzero;"/>
                            <path d="M212.232,142.534L212.067,142.534C211.902,142.534 211.737,142.534 211.737,142.369C211.406,142.369 211.076,142.204 210.746,142.204C209.59,142.039 208.599,141.874 207.608,141.874C207.112,141.874 206.617,141.874 205.956,141.708L205.791,141.708C202.323,141.378 199.515,141.048 196.872,140.222C195.716,139.726 195.386,139.066 195.055,138.405C195.055,138.24 194.89,138.24 194.89,138.075L192.743,137.414C193.734,129.817 193.404,121.889 191.587,114.126C189.77,106.364 186.632,99.097 182.338,92.49L183.99,91.004L183.99,90.674C183.99,89.848 184.155,89.022 184.815,88.196C186.797,86.379 189.275,84.893 192.248,83.076C192.743,82.746 193.239,82.581 193.734,82.25C194.725,81.755 195.551,81.259 196.542,80.599C196.707,80.434 197.037,80.268 197.368,79.938C197.533,79.773 197.698,79.773 197.698,79.608C200.01,77.626 200.506,74.323 198.854,72.175C198.028,71.019 196.542,70.359 195.055,70.359C193.734,70.359 192.578,70.854 191.422,71.68C191.257,71.845 191.257,71.845 191.092,72.01C190.761,72.175 190.596,72.506 190.266,72.671C189.44,73.497 188.779,74.157 188.119,74.983C187.788,75.314 187.458,75.809 186.963,76.139C184.65,78.617 182.503,80.599 180.356,82.085C179.861,82.415 179.365,82.581 178.87,82.581C178.539,82.581 178.209,82.581 177.879,82.415L177.548,82.415L175.566,83.737C173.419,81.425 171.107,79.443 168.795,77.461C158.885,69.698 146.828,64.908 134.276,63.752L134.111,61.605C133.946,61.44 133.946,61.44 133.781,61.275C133.285,60.779 132.625,60.284 132.459,59.128C132.294,56.485 132.625,53.512 132.955,50.209L132.955,50.044C132.955,49.548 133.12,48.888 133.285,48.392C133.45,47.401 133.615,46.41 133.781,45.254L133.781,43.768C133.781,40.795 131.468,38.317 128.661,38.317C127.339,38.317 126.018,38.978 125.027,39.969C124.036,40.96 123.541,42.281 123.541,43.768L123.541,45.089C123.541,46.245 123.706,47.236 124.036,48.227C124.201,48.723 124.201,49.218 124.366,49.879L124.366,50.044C124.697,53.347 125.192,56.32 124.862,58.963C124.697,60.119 124.036,60.614 123.541,61.11C123.375,61.275 123.375,61.275 123.21,61.44L123.045,63.587C120.072,63.917 117.099,64.248 114.126,64.908C101.409,67.716 90.178,74.157 81.425,83.406L79.773,82.25L79.443,82.25C79.112,82.25 78.782,82.415 78.452,82.415C77.956,82.415 77.461,82.25 76.965,81.92C74.818,80.434 72.671,78.286 70.359,75.809C70.028,75.479 69.698,74.983 69.203,74.653C68.542,73.827 67.881,73.166 67.055,72.341C66.89,72.175 66.56,72.01 66.23,71.68C66.065,71.515 65.899,71.515 65.899,71.35C64.908,70.524 63.587,70.028 62.266,70.028C60.779,70.028 59.293,70.689 58.467,71.845C56.815,73.992 57.311,77.295 59.623,79.277C59.788,79.277 59.788,79.443 59.954,79.443C60.284,79.608 60.449,79.938 60.779,80.103C61.77,80.764 62.596,81.259 63.587,81.755C64.083,81.92 64.578,82.25 65.074,82.581C68.046,84.397 70.524,85.884 72.506,87.701C73.332,88.526 73.332,89.352 73.332,90.178L73.332,90.508L74.983,91.995C74.653,92.49 74.323,92.821 74.157,93.316C65.899,106.364 62.761,121.724 64.908,136.919L62.761,137.579C62.761,137.745 62.596,137.745 62.596,137.91C62.266,138.57 61.77,139.231 60.779,139.726C58.302,140.552 55.329,140.883 51.861,141.213L51.695,141.213C51.2,141.213 50.539,141.213 50.044,141.378C49.053,141.378 48.062,141.543 46.906,141.708C46.575,141.708 46.245,141.874 45.915,141.874C45.75,141.874 45.585,141.874 45.419,142.039C42.446,142.699 40.63,145.507 41.125,148.15C41.621,150.462 43.768,151.948 46.41,151.948C46.906,151.948 47.236,151.948 47.732,151.783C47.897,151.783 48.062,151.783 48.062,151.618C48.392,151.618 48.723,151.453 49.053,151.453C50.209,151.123 51.035,150.792 52.026,150.297C52.521,150.132 53.017,149.801 53.512,149.636L53.677,149.636C56.815,148.48 59.623,147.489 62.266,147.159L62.596,147.159C63.587,147.159 64.248,147.654 64.743,147.985C64.908,147.985 64.908,148.15 65.074,148.15L67.386,147.819C71.35,160.041 78.947,170.942 89.022,178.87C91.334,180.686 93.646,182.173 96.124,183.659L95.133,185.806C95.133,185.972 95.298,185.972 95.298,186.137C95.628,186.797 95.959,187.623 95.628,188.779C94.637,191.257 93.151,193.734 91.334,196.542L91.334,196.707C91.004,197.203 90.674,197.533 90.343,198.028C89.683,198.854 89.187,199.68 88.526,200.671C88.361,200.836 88.196,201.166 88.031,201.497C88.031,201.662 87.866,201.827 87.866,201.827C86.545,204.635 87.535,207.773 90.013,208.929C90.674,209.259 91.334,209.425 91.995,209.425C93.977,209.425 95.959,208.103 96.95,206.286C96.95,206.121 97.115,205.956 97.115,205.956C97.28,205.626 97.445,205.295 97.61,205.13C98.106,203.974 98.271,203.148 98.601,202.157C98.766,201.662 98.932,201.166 99.097,200.671C100.253,197.368 101.079,194.725 102.565,192.413C103.226,191.422 104.052,191.257 104.712,190.926C104.877,190.926 104.877,190.926 105.043,190.761L106.199,188.614C113.466,191.422 121.394,192.908 129.321,192.908C134.111,192.908 139.066,192.413 143.69,191.257C146.663,190.596 149.471,189.77 152.279,188.779L153.27,190.596C153.435,190.596 153.435,190.596 153.6,190.761C154.426,190.926 155.086,191.257 155.747,192.248C157.068,194.56 158.059,197.368 159.215,200.506L159.215,200.671C159.381,201.166 159.546,201.662 159.711,202.157C160.041,203.148 160.206,204.139 160.702,205.13C160.867,205.461 161.032,205.626 161.197,205.956C161.197,206.121 161.363,206.286 161.363,206.286C162.354,208.268 164.335,209.425 166.317,209.425C166.978,209.425 167.639,209.259 168.299,208.929C169.455,208.268 170.446,207.277 170.777,205.956C171.107,204.635 171.107,203.148 170.446,201.827C170.446,201.662 170.281,201.662 170.281,201.497C170.116,201.166 169.951,200.836 169.786,200.671C169.29,199.68 168.63,198.854 167.969,198.028C167.639,197.533 167.308,197.203 166.978,196.707L166.978,196.542C165.161,193.734 163.51,191.257 162.684,188.779C162.354,187.623 162.684,186.963 162.849,186.137C162.849,185.972 163.014,185.972 163.014,185.806L162.188,183.825C170.942,178.705 178.374,171.437 183.99,162.519C186.963,157.894 189.275,152.774 190.926,147.654L192.908,147.985C193.074,147.985 193.074,147.819 193.239,147.819C193.899,147.489 194.395,146.994 195.386,146.994L195.716,146.994C198.359,147.324 201.166,148.315 204.305,149.471L204.47,149.471C204.965,149.636 205.461,149.966 205.956,150.132C206.947,150.627 207.773,150.957 208.929,151.288C209.259,151.288 209.59,151.453 209.92,151.453C210.085,151.453 210.25,151.453 210.415,151.618C210.911,151.783 211.241,151.783 211.737,151.783C214.214,151.783 216.361,150.132 217.022,147.985C217.022,146.003 215.205,143.36 212.232,142.534ZM135.763,134.441L128.495,137.91L121.228,134.441L119.412,126.679L124.366,120.403L132.459,120.403L137.414,126.679L135.763,134.441ZM178.87,117.265C180.191,122.88 180.521,128.495 180.026,133.946L154.756,126.679C152.444,126.018 151.123,123.706 151.618,121.394C151.783,120.733 152.114,120.072 152.609,119.577L172.594,101.574C175.401,106.199 177.548,111.484 178.87,117.265ZM164.666,91.665L143.03,107.025C141.213,108.181 138.735,107.85 137.249,106.034C136.754,105.538 136.588,104.877 136.423,104.217L134.937,77.295C146.333,78.617 156.738,83.737 164.666,91.665ZM116.769,78.121C118.586,77.791 120.237,77.461 122.054,77.13L120.568,103.556C120.403,105.868 118.586,107.85 116.108,107.85C115.448,107.85 114.622,107.685 114.126,107.355L92.16,91.665C98.932,84.893 107.355,80.268 116.769,78.121ZM84.232,101.574L103.886,119.081C105.703,120.568 105.868,123.375 104.382,125.192C103.886,125.853 103.226,126.348 102.4,126.514L76.8,133.946C75.809,122.715 78.286,111.319 84.232,101.574ZM79.773,146.333L106.034,141.874C108.181,141.708 110.163,143.195 110.658,145.342C110.823,146.333 110.823,147.159 110.493,147.985L100.418,172.263C91.169,166.317 83.737,157.234 79.773,146.333ZM140.057,179.2C136.258,180.026 132.459,180.521 128.495,180.521C122.715,180.521 117.099,179.53 111.814,177.879L124.862,154.261C126.183,152.774 128.33,152.114 130.147,153.105C130.973,153.6 131.634,154.261 132.129,154.921L144.846,177.879C143.36,178.374 141.708,178.705 140.057,179.2ZM172.263,156.243C168.134,162.849 162.684,168.134 156.408,172.263L146.003,147.324C145.507,145.342 146.333,143.195 148.315,142.204C148.975,141.874 149.801,141.708 150.627,141.708L177.053,146.168C176.062,149.801 174.41,153.105 172.263,156.243Z" style="fill:white;fill-rule:nonzero;"/>
                        </g>
                    </g>
                </g>
            </g>
            <g id="Gear-83" serif:id="Gear 8" transform="matrix(0.223861,0.10491,-0.120283,0.223861,634.571,201.221)">
                <g transform="matrix(0.671949,-0.27833,0.291134,0.70286,19.9351,310.754)">
                    <g id="OuterCircle2" serif:id="OuterCircle">
                        <path d="M841.966,238.034L665.064,238.07L841.966,414.922" style="fill:rgb(18,75,164);"/>
                        <g transform="matrix(0.707107,-0.707107,0.707107,0.707107,-223.675,540)">
                            <path d="M841.966,238.034L665.064,238.07L841.966,414.922" style="fill:rgb(9,89,179);"/>
                        </g>
                        <g transform="matrix(0,-1,1,0,1.13687e-13,1080)">
                            <path d="M841.966,238.034L665.064,238.07L841.966,414.922" style="fill:rgb(9,89,179);"/>
                        </g>
                        <g transform="matrix(-0.707107,-0.707107,0.707107,-0.707107,540,1303.68)">
                            <path d="M841.935,237.956L665.064,238.07L841.966,414.922" style="fill:rgb(9,89,179);"/>
                        </g>
                        <g transform="matrix(-1,0,0,-1,1080,1080)">
                            <path d="M841.966,238.034L665.064,238.07L841.966,414.922" style="fill:rgb(9,89,179);"/>
                        </g>
                        <g transform="matrix(-0.707107,0.707107,-0.707107,-0.707107,1303.68,540)">
                            <path d="M841.966,238.034L665.064,238.07L841.966,414.922" style="fill:rgb(9,89,179);"/>
                        </g>
                        <g transform="matrix(0,1,-1,0,1080,-3.41061e-13)">
                            <path d="M841.879,237.996L665.064,238.07L841.966,414.922" style="fill:rgb(9,89,179);"/>
                        </g>
                        <g transform="matrix(0.707107,0.707107,-0.707107,0.707107,540,-223.675)">
                            <path d="M841.966,238.034L665.064,238.07L841.966,414.922" style="fill:rgb(9,89,179);"/>
                        </g>
                    </g>
                </g>
                <g id="Tooth16" serif:id="Tooth">
                    <path d="M536.134,193.559L469.406,100.712L415.673,239.847" style="fill:rgb(42,127,222);"/>
                    <g transform="matrix(0.325568,0.945519,-0.945519,0.325568,560.48,-370.57)">
                        <path d="M525.468,206.682L456.354,122.218L415.954,239.547" style="fill:rgb(9,89,179);"/>
                    </g>
                    <g transform="matrix(-0.788011,0.615661,-0.615661,-0.788011,1093.34,38.7291)">
                        <path d="M534.403,221.04L471.62,108.341L432.04,258.89" style="fill:rgb(48,116,191);"/>
                    </g>
                    <path d="M415.673,239.847L536.134,193.559L536.134,292.976" style="fill:rgb(18,75,164);"/>
                    <g transform="matrix(-1,0,0,1,1071.81,0)">
                        <path d="M416.815,243.714L535.673,193.559L535.673,292.976" style="fill:rgb(9,89,179);"/>
                    </g>
                </g>
                <g id="Tooth17" serif:id="Tooth" transform="matrix(0.707107,-0.707107,0.707107,0.707107,-218.206,529.365)">
                    <path d="M536.134,193.559L469.406,100.712L413.642,247.343" style="fill:rgb(42,127,222);"/>
                    <g transform="matrix(0.325568,0.945519,-0.945519,0.325568,560.48,-370.57)">
                        <path d="M525.468,206.682L456.354,122.218L415.954,239.547" style="fill:rgb(9,89,179);"/>
                    </g>
                    <g transform="matrix(-0.788011,0.615661,-0.615661,-0.788011,1093.34,38.7291)">
                        <path d="M534.403,221.04L471.62,108.341L432.04,258.89" style="fill:rgb(48,116,191);"/>
                    </g>
                    <path d="M413.642,247.343L536.134,193.559L532.479,296.599" style="fill:rgb(18,75,164);"/>
                    <g transform="matrix(-1,0,0,1,1071.81,0)">
                        <path d="M416.815,243.714L535.673,193.559L539.328,296.599" style="fill:rgb(9,89,179);"/>
                    </g>
                </g>
                <g id="Tooth18" serif:id="Tooth" transform="matrix(0,-1,1,0,-3.86639,1076.13)">
                    <path d="M536.134,193.559L469.406,100.712L417.211,256.914" style="fill:rgb(42,127,222);"/>
                    <g transform="matrix(0.325568,0.945519,-0.945519,0.325568,560.48,-370.57)">
                        <path d="M525.468,206.682L456.354,122.218L415.954,239.547" style="fill:rgb(9,89,179);"/>
                    </g>
                    <g transform="matrix(-0.788011,0.615661,-0.615661,-0.788011,1093.34,38.7291)">
                        <path d="M534.403,221.04L469.986,95.219L432.04,258.89" style="fill:rgb(48,116,191);"/>
                    </g>
                    <path d="M417.211,256.914L536.134,193.559L540,304.628" style="fill:rgb(18,75,164);"/>
                    <g transform="matrix(-1,0,0,1,1071.81,0)">
                        <path d="M407.448,253.048L535.673,193.559L531.807,304.628" style="fill:rgb(9,89,179);"/>
                    </g>
                </g>
                <g id="Tooth19" serif:id="Tooth" transform="matrix(-0.707107,-0.707107,0.707107,-0.707107,533.4,1300.94)">
                    <path d="M536.134,193.559L469.406,100.712L404.997,252.125" style="fill:rgb(42,127,222);"/>
                    <g transform="matrix(0.325568,0.945519,-0.945519,0.325568,560.48,-370.57)">
                        <path d="M525.468,206.682L456.354,122.218L415.954,239.547" style="fill:rgb(9,89,179);"/>
                    </g>
                    <g transform="matrix(-0.788011,0.615661,-0.615661,-0.788011,1093.34,38.7291)">
                        <path d="M534.403,221.04L481.212,100.577L432.04,258.89" style="fill:rgb(48,116,191);"/>
                    </g>
                    <path d="M404.997,252.125L536.134,193.559L529.533,303.414" style="fill:rgb(18,75,164);"/>
                    <g transform="matrix(-1,0,0,1,1071.81,0)">
                        <path d="M419.592,255.737L535.673,193.559L542.274,303.414" style="fill:rgb(9,89,179);"/>
                    </g>
                </g>
                <g id="Tooth20" serif:id="Tooth" transform="matrix(-1,0,0,-1,1080.3,1079.44)">
                    <path d="M536.134,193.559L469.406,100.712L415.673,239.847" style="fill:rgb(42,127,222);"/>
                    <g transform="matrix(0.325568,0.945519,-0.945519,0.325568,560.48,-370.57)">
                        <path d="M525.468,206.682L456.354,122.218L415.954,239.547" style="fill:rgb(9,89,179);"/>
                    </g>
                    <g transform="matrix(-0.788011,0.615661,-0.615661,-0.788011,1093.34,38.7291)">
                        <path d="M534.403,221.04L471.62,108.341L432.04,258.89" style="fill:rgb(48,116,191);"/>
                    </g>
                    <path d="M415.673,239.847L536.134,193.559L536.134,292.976" style="fill:rgb(18,75,164);"/>
                    <g transform="matrix(-1,0,0,1,1071.81,0)">
                        <path d="M416.815,243.714L535.673,193.559L535.673,292.976" style="fill:rgb(9,89,179);"/>
                    </g>
                </g>
                <g id="Tooth21" serif:id="Tooth" transform="matrix(-0.694658,0.71934,-0.71934,-0.694658,1294.93,536.862)">
                    <path d="M536.134,193.559L469.406,100.712L416.821,242.673" style="fill:rgb(42,127,222);"/>
                    <g transform="matrix(0.325568,0.945519,-0.945519,0.325568,560.48,-370.57)">
                        <path d="M525.468,206.682L456.354,122.218L415.954,239.547" style="fill:rgb(9,89,179);"/>
                    </g>
                    <g transform="matrix(-0.788011,0.615661,-0.615661,-0.788011,1093.34,38.7291)">
                        <path d="M534.403,221.04L471.62,108.341L432.04,258.89" style="fill:rgb(48,116,191);"/>
                    </g>
                    <path d="M416.821,242.673L536.134,193.559L534.854,293.924" style="fill:rgb(18,75,164);"/>
                    <g transform="matrix(-1,0,0,1,1071.81,0)">
                        <path d="M416.815,243.714L535.673,193.559L536.953,293.924" style="fill:rgb(9,89,179);"/>
                    </g>
                </g>
                <g id="Tooth22" serif:id="Tooth" transform="matrix(0,1,-1,0,1073.49,8.53351)">
                    <path d="M536.134,193.559L469.406,100.712L412.59,246.54" style="fill:rgb(42,127,222);"/>
                    <g transform="matrix(0.325568,0.945519,-0.945519,0.325568,560.48,-370.57)">
                        <path d="M525.468,206.682L456.354,122.218L415.954,239.547" style="fill:rgb(9,89,179);"/>
                    </g>
                    <g transform="matrix(-0.788011,0.615661,-0.615661,-0.788011,1093.34,38.7291)">
                        <path d="M534.403,221.04L467.357,106.331L432.04,258.89" style="fill:rgb(48,116,191);"/>
                    </g>
                    <path d="M412.59,246.54L536.134,193.559L535.333,294.272" style="fill:rgb(18,75,164);"/>
                    <g transform="matrix(-1,0,0,1,1071.81,0)">
                        <path d="M412.218,242.673L535.673,193.559L536.474,294.272" style="fill:rgb(9,89,179);"/>
                    </g>
                </g>
                <g id="Tooth23" serif:id="Tooth" transform="matrix(0.707107,0.707107,-0.707107,0.707107,535,-217.82)">
                    <path d="M536.134,193.559L469.406,100.712L411.553,241.613" style="fill:rgb(42,127,222);"/>
                    <g transform="matrix(0.325568,0.945519,-0.945519,0.325568,560.48,-370.57)">
                        <path d="M525.468,206.682L456.354,122.218L415.954,239.547" style="fill:rgb(9,89,179);"/>
                    </g>
                    <g transform="matrix(-0.788011,0.615661,-0.615661,-0.788011,1093.34,38.7291)">
                        <path d="M534.403,221.04L470.072,105.043L432.04,258.89" style="fill:rgb(48,116,191);"/>
                    </g>
                    <path d="M411.553,241.613L536.134,193.559L535.529,293.032" style="fill:rgb(18,75,164);"/>
                    <g transform="matrix(-1,0,0,1,1071.81,0)">
                        <path d="M413.564,245.36L535.673,193.559L536.278,293.032" style="fill:rgb(9,89,179);"/>
                    </g>
                </g>
                <g transform="matrix(0.255576,0,0,0.238685,536.906,539.722)">
                    <g transform="matrix(1,0,0,1,-800,-800)">
                        <g transform="matrix(6.25,0,0,6.25,0,21.875)">
                            <path d="M82.085,244.934C76.139,244.934 70.524,242.292 66.725,237.502L8.919,165.657C5.12,160.867 3.634,154.756 5.12,148.81L25.765,59.128C27.086,53.182 31.05,48.392 36.501,45.75L120.072,5.781C122.715,4.459 125.688,3.799 128.661,3.799C131.634,3.799 134.606,4.459 137.249,5.781L220.821,45.585C226.271,48.227 230.235,53.017 231.556,58.963L252.201,148.645C253.523,154.591 252.201,160.702 248.403,165.492L190.596,237.337C186.797,241.961 181.182,244.769 175.236,244.769L82.085,244.934Z" style="fill:rgb(50,109,230);fill-rule:nonzero;"/>
                            <path d="M128.495,7.928C130.808,7.928 133.12,8.423 135.267,9.414L218.839,49.218C223.133,51.365 226.436,55.329 227.427,59.954L248.072,149.636C249.228,154.426 248.072,159.381 244.934,163.179L187.128,235.025C184.155,238.823 179.53,240.97 174.741,240.97L82.085,240.97C77.295,240.97 72.671,238.823 69.698,235.025L11.892,163.179C8.919,159.381 7.763,154.426 8.754,149.636L29.399,59.954C30.555,55.164 33.693,51.2 37.987,49.218L121.559,9.249C123.706,8.423 126.183,7.928 128.495,7.928ZM128.495,0.165C125.027,0.165 121.559,0.991 118.255,2.477L34.684,42.446C28.077,45.585 23.453,51.365 21.801,58.467L1.156,148.15C-0.495,155.252 1.156,162.519 5.781,168.299L63.587,240.145C68.046,245.76 74.818,248.898 81.92,248.898L174.575,248.898C181.677,248.898 188.449,245.76 192.908,240.145L250.715,168.299C255.339,162.684 256.991,155.252 255.339,148.15L234.694,58.467C233.043,51.365 228.418,45.585 221.812,42.446L138.57,2.477C135.432,0.991 131.964,0.165 128.495,0.165Z" style="fill:white;fill-rule:nonzero;"/>
                            <path d="M212.232,142.534L212.067,142.534C211.902,142.534 211.737,142.534 211.737,142.369C211.406,142.369 211.076,142.204 210.746,142.204C209.59,142.039 208.599,141.874 207.608,141.874C207.112,141.874 206.617,141.874 205.956,141.708L205.791,141.708C202.323,141.378 199.515,141.048 196.872,140.222C195.716,139.726 195.386,139.066 195.055,138.405C195.055,138.24 194.89,138.24 194.89,138.075L192.743,137.414C193.734,129.817 193.404,121.889 191.587,114.126C189.77,106.364 186.632,99.097 182.338,92.49L183.99,91.004L183.99,90.674C183.99,89.848 184.155,89.022 184.815,88.196C186.797,86.379 189.275,84.893 192.248,83.076C192.743,82.746 193.239,82.581 193.734,82.25C194.725,81.755 195.551,81.259 196.542,80.599C196.707,80.434 197.037,80.268 197.368,79.938C197.533,79.773 197.698,79.773 197.698,79.608C200.01,77.626 200.506,74.323 198.854,72.175C198.028,71.019 196.542,70.359 195.055,70.359C193.734,70.359 192.578,70.854 191.422,71.68C191.257,71.845 191.257,71.845 191.092,72.01C190.761,72.175 190.596,72.506 190.266,72.671C189.44,73.497 188.779,74.157 188.119,74.983C187.788,75.314 187.458,75.809 186.963,76.139C184.65,78.617 182.503,80.599 180.356,82.085C179.861,82.415 179.365,82.581 178.87,82.581C178.539,82.581 178.209,82.581 177.879,82.415L177.548,82.415L175.566,83.737C173.419,81.425 171.107,79.443 168.795,77.461C158.885,69.698 146.828,64.908 134.276,63.752L134.111,61.605C133.946,61.44 133.946,61.44 133.781,61.275C133.285,60.779 132.625,60.284 132.459,59.128C132.294,56.485 132.625,53.512 132.955,50.209L132.955,50.044C132.955,49.548 133.12,48.888 133.285,48.392C133.45,47.401 133.615,46.41 133.781,45.254L133.781,43.768C133.781,40.795 131.468,38.317 128.661,38.317C127.339,38.317 126.018,38.978 125.027,39.969C124.036,40.96 123.541,42.281 123.541,43.768L123.541,45.089C123.541,46.245 123.706,47.236 124.036,48.227C124.201,48.723 124.201,49.218 124.366,49.879L124.366,50.044C124.697,53.347 125.192,56.32 124.862,58.963C124.697,60.119 124.036,60.614 123.541,61.11C123.375,61.275 123.375,61.275 123.21,61.44L123.045,63.587C120.072,63.917 117.099,64.248 114.126,64.908C101.409,67.716 90.178,74.157 81.425,83.406L79.773,82.25L79.443,82.25C79.112,82.25 78.782,82.415 78.452,82.415C77.956,82.415 77.461,82.25 76.965,81.92C74.818,80.434 72.671,78.286 70.359,75.809C70.028,75.479 69.698,74.983 69.203,74.653C68.542,73.827 67.881,73.166 67.055,72.341C66.89,72.175 66.56,72.01 66.23,71.68C66.065,71.515 65.899,71.515 65.899,71.35C64.908,70.524 63.587,70.028 62.266,70.028C60.779,70.028 59.293,70.689 58.467,71.845C56.815,73.992 57.311,77.295 59.623,79.277C59.788,79.277 59.788,79.443 59.954,79.443C60.284,79.608 60.449,79.938 60.779,80.103C61.77,80.764 62.596,81.259 63.587,81.755C64.083,81.92 64.578,82.25 65.074,82.581C68.046,84.397 70.524,85.884 72.506,87.701C73.332,88.526 73.332,89.352 73.332,90.178L73.332,90.508L74.983,91.995C74.653,92.49 74.323,92.821 74.157,93.316C65.899,106.364 62.761,121.724 64.908,136.919L62.761,137.579C62.761,137.745 62.596,137.745 62.596,137.91C62.266,138.57 61.77,139.231 60.779,139.726C58.302,140.552 55.329,140.883 51.861,141.213L51.695,141.213C51.2,141.213 50.539,141.213 50.044,141.378C49.053,141.378 48.062,141.543 46.906,141.708C46.575,141.708 46.245,141.874 45.915,141.874C45.75,141.874 45.585,141.874 45.419,142.039C42.446,142.699 40.63,145.507 41.125,148.15C41.621,150.462 43.768,151.948 46.41,151.948C46.906,151.948 47.236,151.948 47.732,151.783C47.897,151.783 48.062,151.783 48.062,151.618C48.392,151.618 48.723,151.453 49.053,151.453C50.209,151.123 51.035,150.792 52.026,150.297C52.521,150.132 53.017,149.801 53.512,149.636L53.677,149.636C56.815,148.48 59.623,147.489 62.266,147.159L62.596,147.159C63.587,147.159 64.248,147.654 64.743,147.985C64.908,147.985 64.908,148.15 65.074,148.15L67.386,147.819C71.35,160.041 78.947,170.942 89.022,178.87C91.334,180.686 93.646,182.173 96.124,183.659L95.133,185.806C95.133,185.972 95.298,185.972 95.298,186.137C95.628,186.797 95.959,187.623 95.628,188.779C94.637,191.257 93.151,193.734 91.334,196.542L91.334,196.707C91.004,197.203 90.674,197.533 90.343,198.028C89.683,198.854 89.187,199.68 88.526,200.671C88.361,200.836 88.196,201.166 88.031,201.497C88.031,201.662 87.866,201.827 87.866,201.827C86.545,204.635 87.535,207.773 90.013,208.929C90.674,209.259 91.334,209.425 91.995,209.425C93.977,209.425 95.959,208.103 96.95,206.286C96.95,206.121 97.115,205.956 97.115,205.956C97.28,205.626 97.445,205.295 97.61,205.13C98.106,203.974 98.271,203.148 98.601,202.157C98.766,201.662 98.932,201.166 99.097,200.671C100.253,197.368 101.079,194.725 102.565,192.413C103.226,191.422 104.052,191.257 104.712,190.926C104.877,190.926 104.877,190.926 105.043,190.761L106.199,188.614C113.466,191.422 121.394,192.908 129.321,192.908C134.111,192.908 139.066,192.413 143.69,191.257C146.663,190.596 149.471,189.77 152.279,188.779L153.27,190.596C153.435,190.596 153.435,190.596 153.6,190.761C154.426,190.926 155.086,191.257 155.747,192.248C157.068,194.56 158.059,197.368 159.215,200.506L159.215,200.671C159.381,201.166 159.546,201.662 159.711,202.157C160.041,203.148 160.206,204.139 160.702,205.13C160.867,205.461 161.032,205.626 161.197,205.956C161.197,206.121 161.363,206.286 161.363,206.286C162.354,208.268 164.335,209.425 166.317,209.425C166.978,209.425 167.639,209.259 168.299,208.929C169.455,208.268 170.446,207.277 170.777,205.956C171.107,204.635 171.107,203.148 170.446,201.827C170.446,201.662 170.281,201.662 170.281,201.497C170.116,201.166 169.951,200.836 169.786,200.671C169.29,199.68 168.63,198.854 167.969,198.028C167.639,197.533 167.308,197.203 166.978,196.707L166.978,196.542C165.161,193.734 163.51,191.257 162.684,188.779C162.354,187.623 162.684,186.963 162.849,186.137C162.849,185.972 163.014,185.972 163.014,185.806L162.188,183.825C170.942,178.705 178.374,171.437 183.99,162.519C186.963,157.894 189.275,152.774 190.926,147.654L192.908,147.985C193.074,147.985 193.074,147.819 193.239,147.819C193.899,147.489 194.395,146.994 195.386,146.994L195.716,146.994C198.359,147.324 201.166,148.315 204.305,149.471L204.47,149.471C204.965,149.636 205.461,149.966 205.956,150.132C206.947,150.627 207.773,150.957 208.929,151.288C209.259,151.288 209.59,151.453 209.92,151.453C210.085,151.453 210.25,151.453 210.415,151.618C210.911,151.783 211.241,151.783 211.737,151.783C214.214,151.783 216.361,150.132 217.022,147.985C217.022,146.003 215.205,143.36 212.232,142.534ZM135.763,134.441L128.495,137.91L121.228,134.441L119.412,126.679L124.366,120.403L132.459,120.403L137.414,126.679L135.763,134.441ZM178.87,117.265C180.191,122.88 180.521,128.495 180.026,133.946L154.756,126.679C152.444,126.018 151.123,123.706 151.618,121.394C151.783,120.733 152.114,120.072 152.609,119.577L172.594,101.574C175.401,106.199 177.548,111.484 178.87,117.265ZM164.666,91.665L143.03,107.025C141.213,108.181 138.735,107.85 137.249,106.034C136.754,105.538 136.588,104.877 136.423,104.217L134.937,77.295C146.333,78.617 156.738,83.737 164.666,91.665ZM116.769,78.121C118.586,77.791 120.237,77.461 122.054,77.13L120.568,103.556C120.403,105.868 118.586,107.85 116.108,107.85C115.448,107.85 114.622,107.685 114.126,107.355L92.16,91.665C98.932,84.893 107.355,80.268 116.769,78.121ZM84.232,101.574L103.886,119.081C105.703,120.568 105.868,123.375 104.382,125.192C103.886,125.853 103.226,126.348 102.4,126.514L76.8,133.946C75.809,122.715 78.286,111.319 84.232,101.574ZM79.773,146.333L106.034,141.874C108.181,141.708 110.163,143.195 110.658,145.342C110.823,146.333 110.823,147.159 110.493,147.985L100.418,172.263C91.169,166.317 83.737,157.234 79.773,146.333ZM140.057,179.2C136.258,180.026 132.459,180.521 128.495,180.521C122.715,180.521 117.099,179.53 111.814,177.879L124.862,154.261C126.183,152.774 128.33,152.114 130.147,153.105C130.973,153.6 131.634,154.261 132.129,154.921L144.846,177.879C143.36,178.374 141.708,178.705 140.057,179.2ZM172.263,156.243C168.134,162.849 162.684,168.134 156.408,172.263L146.003,147.324C145.507,145.342 146.333,143.195 148.315,142.204C148.975,141.874 149.801,141.708 150.627,141.708L177.053,146.168C176.062,149.801 174.41,153.105 172.263,156.243Z" style="fill:white;fill-rule:nonzero;"/>
                        </g>
                    </g>
                </g>
            </g>
        </g>
    </g>
</svg>
